<svg width="324" height="67" viewBox="0 0 324 67" fill="none" xmlns="http://www.w3.org/2000/svg">
<g filter="url(#filter0_i)">
<path d="M35.9443 18.664C35.9443 15.208 35.2403 12.648 33.8323 10.984C32.4243 9.27733 30.5043 8.44533 28.0723 8.488H25.0003V38.504C25.0003 39.656 24.9789 40.7653 24.9363 41.832C24.8936 42.8987 24.8296 43.7093 24.7443 44.264C25.4696 44.1787 26.3869 44.136 27.4963 44.136C28.6483 44.0933 29.4376 44.072 29.8643 44.072V49H11.1763V44.776C12.1576 44.7333 12.9683 44.6053 13.6083 44.392C14.2909 44.1787 14.8029 43.688 15.1443 42.92C15.5283 42.152 15.7203 40.9147 15.7203 39.208V8.552H12.7763C10.3443 8.59466 8.42425 9.42666 7.01625 11.048C5.60825 12.6693 4.90425 15.208 4.90425 18.664H0.68025L1.00025 4.2H39.7843L40.1683 18.664H35.9443ZM55.8233 50.024C52.7086 50.024 49.9566 49.3413 47.5673 47.976C45.1779 46.568 43.3219 44.6053 41.9993 42.088C40.6766 39.528 40.0153 36.52 40.0153 33.064C40.0153 30.0773 40.6766 27.2827 41.9993 24.68C43.3219 22.0773 45.1779 19.9867 47.5673 18.408C49.9993 16.7867 52.8153 15.976 56.0153 15.976C57.8073 15.976 59.5566 16.232 61.2633 16.744C62.9699 17.2133 64.5059 18.0453 65.8713 19.24C67.2793 20.4347 68.3886 22.056 69.1993 24.104C70.0526 26.152 70.4579 28.712 70.4153 31.784L49.4233 32.168C49.4233 34.472 49.7006 36.5413 50.2553 38.376C50.8526 40.2107 51.8126 41.6613 53.1353 42.728C54.4579 43.7947 56.2286 44.328 58.4473 44.328C59.7273 44.328 61.2419 43.9867 62.9913 43.304C64.7833 42.5787 66.4046 41.32 67.8553 39.528L70.7353 42.216C69.1993 44.392 67.5566 46.056 65.8073 47.208C64.0579 48.3173 62.3086 49.064 60.5593 49.448C58.8526 49.832 57.2739 50.024 55.8233 50.024ZM49.8073 27.688H61.5833C61.5406 25.0427 61.0286 23.1867 60.0473 22.12C59.0659 21.0107 57.8286 20.456 56.3353 20.456C54.4579 20.456 52.9859 21.1387 51.9193 22.504C50.8526 23.8267 50.1486 25.5547 49.8073 27.688ZM90.1968 50.024C87.3381 50.024 84.7141 49.384 82.3248 48.104C79.9354 46.824 78.0154 44.968 76.5648 42.536C75.1568 40.104 74.4528 37.16 74.4528 33.704C74.4528 30.4613 75.1568 27.5173 76.5648 24.872C77.9728 22.184 79.9141 20.0293 82.3888 18.408C84.9061 16.7867 87.8074 15.976 91.0928 15.976C93.8234 15.976 96.0848 16.4027 97.8768 17.256C99.7114 18.0667 101.077 19.1547 101.973 20.52C102.911 21.8427 103.381 23.2507 103.381 24.744C103.381 25.9813 102.997 27.0907 102.229 28.072C101.503 29.0107 100.458 29.5013 99.0928 29.544C97.4714 29.5867 96.3408 29.1387 95.7008 28.2C95.0608 27.2187 94.7408 26.28 94.7408 25.384C94.7408 25 94.8048 24.552 94.9328 24.04C95.0608 23.4853 95.2528 22.9947 95.5088 22.568C95.0394 21.6293 94.2928 21.032 93.2688 20.776C92.2448 20.52 91.4341 20.4133 90.8368 20.456C88.7888 20.584 87.1034 21.608 85.7808 23.528C84.4581 25.448 83.7968 28.2213 83.7968 31.848C83.7968 33.9813 84.0528 35.9867 84.5648 37.864C85.1194 39.6987 86.0154 41.2133 87.2528 42.408C88.4901 43.6027 90.1541 44.2427 92.2448 44.328C94.0368 44.3707 95.7861 43.944 97.4928 43.048C99.1994 42.152 100.65 40.936 101.845 39.4L104.789 42.28C103.253 44.4133 101.653 46.0347 99.9888 47.144C98.3248 48.2533 96.6608 49 94.9968 49.384C93.3754 49.8107 91.7754 50.024 90.1968 50.024ZM127.29 44.84C129.082 44.84 130.17 44.328 130.554 43.304C130.938 42.2373 131.13 40.8507 131.13 39.144L131.066 30.056C131.066 24.5947 129.338 21.864 125.882 21.864C124.815 21.864 123.748 22.0987 122.682 22.568C121.658 23.0373 120.783 23.592 120.058 24.232V38.696C120.058 39.2933 120.036 40.1467 119.994 41.256C119.951 42.3227 119.887 43.3467 119.802 44.328C120.527 44.2427 121.295 44.2 122.106 44.2C122.916 44.1573 123.535 44.136 123.962 44.136V49H107.194V44.84C108.986 44.84 110.052 44.328 110.394 43.304C110.778 42.2373 110.97 40.8507 110.97 39.144V12.84C110.97 12.072 110.991 11.1973 111.034 10.216C111.076 9.192 111.14 8.21066 111.226 7.272C110.543 7.31467 109.732 7.35733 108.794 7.4C107.898 7.4 107.215 7.42133 106.746 7.464V2.6C109.732 2.6 112.015 2.38667 113.594 1.96C115.172 1.53333 116.175 1.10666 116.602 0.679996H120.058V19.56C120.911 18.8773 121.892 18.28 123.002 17.768C124.111 17.2133 125.242 16.7867 126.394 16.488C127.546 16.1467 128.548 15.976 129.402 15.976C133.327 15.976 136.1 17.1067 137.722 19.368C139.343 21.5867 140.175 25.1707 140.218 30.12V38.696C140.218 39.2933 140.196 40.1467 140.154 41.256C140.111 42.3227 140.047 43.3467 139.962 44.328C140.644 44.2427 141.391 44.2 142.202 44.2C143.012 44.1573 143.652 44.136 144.122 44.136V49H127.29V44.84ZM178.882 18.664C178.882 15.208 178.178 12.648 176.77 10.984C175.362 9.27733 173.442 8.44533 171.01 8.488H167.938V38.504C167.938 39.656 167.916 40.7653 167.874 41.832C167.831 42.8987 167.767 43.7093 167.682 44.264C168.407 44.1787 169.324 44.136 170.434 44.136C171.586 44.0933 172.375 44.072 172.802 44.072V49H154.114V44.776C155.095 44.7333 155.906 44.6053 156.546 44.392C157.228 44.1787 157.74 43.688 158.082 42.92C158.466 42.152 158.658 40.9147 158.658 39.208V8.552H155.714C153.282 8.59466 151.362 9.42666 149.954 11.048C148.546 12.6693 147.842 15.208 147.842 18.664H143.618L143.938 4.2H182.722L183.106 18.664H178.882ZM199.273 50.024C196.201 50.024 193.427 49.3627 190.953 48.04C188.478 46.7173 186.515 44.84 185.065 42.408C183.657 39.9333 182.953 37.032 182.953 33.704C182.953 30.1627 183.678 27.0693 185.129 24.424C186.622 21.736 188.585 19.6667 191.017 18.216C193.491 16.7227 196.179 15.976 199.081 15.976C202.153 15.976 204.905 16.6373 207.337 17.96C209.769 19.2827 211.689 21.1813 213.097 23.656C214.505 26.088 215.209 29.0107 215.209 32.424C215.209 36.008 214.526 39.1227 213.161 41.768C211.795 44.4133 209.918 46.4613 207.529 47.912C205.139 49.32 202.387 50.024 199.273 50.024ZM199.529 45.48C201.235 45.4373 202.515 44.84 203.369 43.688C204.265 42.536 204.883 41.0853 205.225 39.336C205.566 37.5867 205.737 35.816 205.737 34.024C205.737 32.4453 205.609 30.8453 205.353 29.224C205.139 27.6027 204.777 26.1307 204.265 24.808C203.753 23.4853 203.049 22.4187 202.153 21.608C201.299 20.7973 200.233 20.4133 198.953 20.456C197.289 20.4987 195.966 21.096 194.985 22.248C194.046 23.4 193.363 24.8507 192.937 26.6C192.553 28.3067 192.361 30.0987 192.361 31.976C192.361 34.152 192.595 36.2853 193.065 38.376C193.534 40.4667 194.281 42.1947 195.305 43.56C196.371 44.8827 197.779 45.5227 199.529 45.48ZM232.195 50.024C229.635 50.024 227.373 49.3627 225.411 48.04C223.491 46.7173 221.976 44.84 220.867 42.408C219.8 39.976 219.267 37.1173 219.267 33.832C219.267 30.376 219.928 27.304 221.251 24.616C222.573 21.928 224.429 19.816 226.819 18.28C229.208 16.744 231.981 15.976 235.139 15.976C236.291 15.976 237.315 16.104 238.211 16.36C239.149 16.5733 240.024 16.8293 240.835 17.128V12.904C240.835 12.3067 240.856 11.4533 240.899 10.344C240.941 9.23466 241.005 8.21066 241.091 7.272C240.408 7.31467 239.597 7.35733 238.659 7.4C237.72 7.44266 237.016 7.464 236.547 7.464V2.6C239.533 2.6 241.816 2.38667 243.395 1.96C244.973 1.53333 245.976 1.10666 246.403 0.679996H249.859V38.696C249.859 39.2933 249.837 40.1467 249.795 41.256C249.752 42.3227 249.688 43.3467 249.603 44.328C250.328 44.2427 251.096 44.2 251.907 44.2C252.717 44.1573 253.336 44.136 253.763 44.136V49H241.603C241.56 48.5307 241.496 48.04 241.411 47.528C241.368 47.016 241.304 46.5253 241.219 46.056C239.811 47.5067 238.36 48.5307 236.867 49.128C235.373 49.7253 233.816 50.024 232.195 50.024ZM235.523 44.2C236.632 44.2 237.656 43.9227 238.595 43.368C239.533 42.7707 240.28 42.024 240.835 41.128V21.928C240.408 21.5867 239.768 21.3093 238.915 21.096C238.061 20.84 237.187 20.712 236.291 20.712C234.328 20.7547 232.792 21.3733 231.683 22.568C230.573 23.7627 229.784 25.2773 229.315 27.112C228.888 28.9467 228.675 30.8667 228.675 32.872C228.675 34.664 228.888 36.4347 229.315 38.184C229.784 39.9333 230.509 41.384 231.491 42.536C232.515 43.6453 233.859 44.2 235.523 44.2ZM275.76 49C275.674 48.4027 275.61 47.912 275.568 47.528C275.568 47.1013 275.546 46.6107 275.504 46.056C274.053 47.5067 272.517 48.5307 270.896 49.128C269.274 49.7253 267.632 50.024 265.968 50.024C263.237 50.024 261.104 49.2133 259.568 47.592C258.032 45.9707 257.264 43.944 257.264 41.512C257.264 39.464 257.776 37.7147 258.8 36.264C259.866 34.8133 261.253 33.64 262.96 32.744C264.709 31.8053 266.629 31.1013 268.72 30.632C270.853 30.12 272.986 29.8213 275.12 29.736V26.408C275.12 24.744 274.778 23.336 274.096 22.184C273.456 21.032 272.261 20.4987 270.512 20.584C268.72 20.6693 267.269 21.2667 266.16 22.376C266.501 22.76 266.714 23.1867 266.8 23.656C266.885 24.0827 266.928 24.4667 266.928 24.808C266.928 25.6613 266.586 26.5573 265.904 27.496C265.221 28.392 264.133 28.8187 262.64 28.776C261.36 28.7333 260.378 28.2853 259.696 27.432C259.013 26.5787 258.672 25.576 258.672 24.424C258.672 22.7173 259.269 21.2453 260.464 20.008C261.701 18.728 263.344 17.7467 265.392 17.064C267.44 16.3387 269.701 15.976 272.176 15.976C275.93 15.976 278.832 16.9573 280.88 18.92C282.97 20.84 284.016 23.9333 284.016 28.2C284.016 29.6507 284.016 30.888 284.016 31.912C284.016 32.936 283.994 33.96 283.952 34.984C283.952 36.008 283.952 37.2453 283.952 38.696C283.952 39.2933 283.93 40.1467 283.888 41.256C283.845 42.3227 283.781 43.3467 283.696 44.328C284.421 44.2427 285.189 44.2 286 44.2C286.81 44.1573 287.429 44.136 287.856 44.136V49H275.76ZM275.056 34.28C272.666 34.4933 270.597 35.112 268.848 36.136C267.141 37.16 266.309 38.5893 266.352 40.424C266.394 41.6187 266.778 42.472 267.504 42.984C268.229 43.496 269.061 43.752 270 43.752C270.981 43.752 271.898 43.5387 272.752 43.112C273.605 42.6853 274.373 42.1307 275.056 41.448V34.28ZM297.566 66.344C295.944 66.344 294.558 65.8533 293.406 64.872C292.296 63.9333 291.742 62.6747 291.742 61.096C291.742 59.944 292.104 58.92 292.83 58.024C293.598 57.1707 294.579 56.7227 295.774 56.68C296.712 56.6373 297.502 56.936 298.142 57.576C298.824 58.2587 299.166 59.176 299.166 60.328C299.166 60.456 299.166 60.584 299.166 60.712C299.166 60.84 299.144 60.9893 299.102 61.16C299.187 61.16 299.294 61.1387 299.422 61.096C300.19 60.84 301.043 59.7307 301.982 57.768C302.963 55.7627 303.816 53.3947 304.542 50.664L294.43 30.376C293.235 27.9867 292.446 26.1947 292.062 25C291.72 23.7627 291.486 22.6747 291.358 21.736L288.414 21.864V17H304.35V21.096C302.771 21.2667 301.896 21.864 301.726 22.888C301.598 23.912 301.79 24.9787 302.302 26.088L308.574 40.424C309 39.3147 309.555 37.608 310.238 35.304C310.92 32.9573 311.731 30.4187 312.67 27.688C312.926 26.8773 313.288 25.8533 313.758 24.616C314.27 23.336 314.803 22.3547 315.358 21.672L311.71 21.864V17H323.102V21.096C321.779 21.3947 320.67 22.2053 319.774 23.528C318.92 24.8507 318.152 26.472 317.47 28.392L309.47 51.24C308.275 54.696 307.144 57.5333 306.078 59.752C305.011 62.0133 303.816 63.6773 302.494 64.744C301.171 65.8107 299.528 66.344 297.566 66.344Z" fill="#EF5DA8"/>
</g>
<defs>
<filter id="filter0_i" x="0.680252" y="0.679993" width="322.422" height="69.664" filterUnits="userSpaceOnUse" color-interpolation-filters="sRGB">
<feFlood flood-opacity="0" result="BackgroundImageFix"/>
<feBlend mode="normal" in="SourceGraphic" in2="BackgroundImageFix" result="shape"/>
<feColorMatrix in="SourceAlpha" type="matrix" values="0 0 0 0 0 0 0 0 0 0 0 0 0 0 0 0 0 0 127 0" result="hardAlpha"/>
<feOffset dy="4"/>
<feGaussianBlur stdDeviation="2"/>
<feComposite in2="hardAlpha" operator="arithmetic" k2="-1" k3="1"/>
<feColorMatrix type="matrix" values="0 0 0 0 0 0 0 0 0 0 0 0 0 0 0 0 0 0 0.25 0"/>
<feBlend mode="normal" in2="shape" result="effect1_innerShadow"/>
</filter>
</defs>
</svg>
